<svg width="185" height="48" viewBox="0 0 185 48" fill="none" xmlns="http://www.w3.org/2000/svg">
    <g id="portfolio">
        <path d="M48 23.79C48 29.2269 46.1148 34.4955 42.6657 38.6983C39.2166 42.901 34.417 45.7778 29.0846 46.8385C23.7522 47.8992 18.2171 47.0781 13.4222 44.5152C8.62731 41.9523 4.86942 37.8061 2.78883 32.7831C0.708239 27.7601 0.433668 22.1711 2.0119 16.9684C3.59013 11.7656 6.92352 7.27106 11.4441 4.2505C15.9647 1.22995 21.3927 -0.129706 26.8034 0.403198C32.2141 0.936101 37.2726 3.3286 41.117 7.17303L38.5485 9.74152C35.2983 6.49133 31.0217 4.46864 26.4474 4.01811C21.873 3.56757 17.284 4.71707 13.4622 7.27073C9.64032 9.8244 6.82218 13.6242 5.48789 18.0228C4.15361 22.4213 4.38574 27.1465 6.14473 31.393C7.90373 35.6396 11.0808 39.1449 15.1345 41.3117C19.1882 43.4785 23.8678 44.1726 28.376 43.2759C32.8841 42.3792 36.9419 39.947 39.8579 36.3939C42.7738 32.8408 44.3676 28.3865 44.3676 23.79H48Z"
              fill="white"/>
        <path d="M16.0159 39.0958C12.4748 37.1329 9.72382 34.003 8.23174 30.2392C6.73967 26.4755 6.59878 22.3108 7.83309 18.4548C9.0674 14.5988 11.6005 11.2901 15.0009 9.09244C18.4012 6.89477 22.4584 5.9441 26.4811 6.40243C30.5038 6.86076 34.2431 8.69972 37.0619 11.606C39.8807 14.5122 41.6047 18.306 41.9399 22.3408C42.2752 26.3756 41.2011 30.4018 38.9006 33.7335C36.6001 37.0651 33.2156 39.496 29.3237 40.612L28.5781 38.0118C31.8684 37.0683 34.7298 35.0132 36.6747 32.1965C38.6196 29.3798 39.5277 25.9759 39.2442 22.5648C38.9608 19.1536 37.5033 15.9463 35.1202 13.4893C32.7371 11.0322 29.5758 9.4775 26.1749 9.09002C22.774 8.70254 19.3439 9.50626 16.4692 11.3642C13.5944 13.2222 11.4528 16.0195 10.4093 19.2795C9.36578 22.5394 9.48489 26.0604 10.7463 29.2424C12.0078 32.4243 14.3335 35.0705 17.3273 36.73L16.0159 39.0958Z"
              fill="white"/>
        <path d="M24.5 11.29C27.3919 11.29 30.1944 12.2928 32.4299 14.1274C34.6654 15.962 36.1956 18.515 36.7598 21.3514C37.324 24.1878 36.8873 27.132 35.524 29.6825C34.1608 32.233 31.9554 34.2318 29.2835 35.3385C26.6117 36.4452 23.6389 36.5913 20.8714 35.7518C18.104 34.9123 15.7133 33.1392 14.1066 30.7347C12.5 28.3301 11.7767 25.4428 12.0602 22.5648C12.3437 19.6868 13.6163 16.9961 15.6612 14.9512L17.0274 16.3174C15.2986 18.0463 14.2227 20.321 13.983 22.7542C13.7434 25.1874 14.3548 27.6283 15.7131 29.6612C17.0715 31.6941 19.0927 33.1931 21.4323 33.9029C23.772 34.6126 26.2853 34.4891 28.5442 33.5535C30.803 32.6178 32.6675 30.9279 33.82 28.7717C34.9726 26.6155 35.3418 24.1263 34.8648 21.7283C34.3878 19.3304 33.0941 17.172 31.2042 15.621C29.3142 14.0699 26.9449 13.2222 24.5 13.2222L24.5 11.29Z"
              fill="white"/>
        <path d="M17.0301 19.7343C17.9685 18.0061 19.477 16.6567 21.2987 15.916C23.1205 15.1754 25.1426 15.0893 27.0207 15.6725C28.8988 16.2556 30.5165 17.4719 31.5983 19.1141C32.6802 20.7563 33.1591 22.7229 32.9535 24.6786C32.748 26.6344 31.8706 28.4583 30.471 29.8397C29.0714 31.2211 27.2361 32.0745 25.2779 32.2545C23.3196 32.4344 21.3595 31.9298 19.7316 30.8266C18.1037 29.7233 16.9086 28.0898 16.3501 26.2043L17.7273 25.7963C18.1915 27.3632 19.1846 28.7207 20.5374 29.6375C21.8902 30.5543 23.5191 30.9737 25.1464 30.8241C26.7738 30.6746 28.2989 29.9654 29.462 28.8175C30.6251 27.6695 31.3542 26.1537 31.525 24.5285C31.6959 22.9032 31.2979 21.269 30.3989 19.9043C29.4999 18.5396 28.1555 17.5288 26.5948 17.0442C25.034 16.5596 23.3536 16.6311 21.8397 17.2466C20.3258 17.8621 19.0722 18.9835 18.2924 20.4196L17.0301 19.7343Z"
              fill="white"/>
        <path d="M28.2197 26.3227C27.6337 27.1833 26.7675 27.8141 25.7687 28.1076C24.7698 28.4011 23.7001 28.3392 22.7417 27.9324C21.7834 27.5256 20.9958 26.7991 20.513 25.8767C20.0303 24.9543 19.8823 23.893 20.0943 22.8737C20.3063 21.8544 20.8652 20.9402 21.6757 20.2868C22.4862 19.6334 23.4982 19.2812 24.5393 19.2903C25.5803 19.2994 26.586 19.6692 27.385 20.3366C28.184 21.0041 28.7269 21.9279 28.921 22.9508L28.0934 23.1079C27.9356 22.2765 27.4944 21.5256 26.845 20.9831C26.1955 20.4406 25.3781 20.14 24.5319 20.1326C23.6858 20.1253 22.8632 20.4115 22.2044 20.9426C21.5456 21.4737 21.0914 22.2168 20.9191 23.0453C20.7467 23.8737 20.867 24.7363 21.2594 25.4861C21.6517 26.2358 22.2919 26.8263 23.0709 27.157C23.8498 27.4876 24.7193 27.5379 25.5312 27.2994C26.3431 27.0608 27.0471 26.5481 27.5234 25.8486L28.2197 26.3227Z"
              fill="white"/>
        <path d="M23.7068 21.4192C24.2553 21.2357 24.8504 21.248 25.3909 21.4541C25.9313 21.6602 26.3835 22.0473 26.6705 22.5495C26.9575 23.0516 27.0615 23.6378 26.9648 24.208C26.8681 24.7783 26.5767 25.2973 26.1402 25.6768C25.7037 26.0563 25.1491 26.2726 24.5709 26.289C23.9928 26.3054 23.4268 26.1209 22.9695 25.7668C22.5122 25.4127 22.1918 24.9109 22.0629 24.3471C21.934 23.7832 22.0046 23.1922 22.2627 22.6745L23.1394 23.1117C22.9825 23.4264 22.9395 23.7859 23.0179 24.1288C23.0963 24.4717 23.2911 24.7768 23.5693 24.9921C23.8474 25.2075 24.1916 25.3197 24.5431 25.3098C24.8947 25.2998 25.232 25.1682 25.4975 24.9374C25.7629 24.7067 25.9402 24.391 25.999 24.0442C26.0578 23.6974 25.9945 23.341 25.82 23.0356C25.6454 22.7302 25.3704 22.4948 25.0418 22.3695C24.7131 22.2442 24.3512 22.2367 24.0176 22.3483L23.7068 21.4192Z"
              fill="white"/>
        <circle cx="24.5" cy="23.79" r="0.5" transform="rotate(-180 24.5 23.79)" fill="white"/>
        <path d="M77.83 19.65C77.83 20.71 77.58 21.71 77.08 22.65C76.58 23.59 75.78 24.36 74.68 24.96C73.58 25.54 72.17 25.83 70.45 25.83H66.67V34.29H63.25V13.44H70.45C72.05 13.44 73.4 13.72 74.5 14.28C75.62 14.82 76.45 15.56 76.99 16.5C77.55 17.44 77.83 18.49 77.83 19.65ZM70.45 23.04C71.75 23.04 72.72 22.75 73.36 22.17C74 21.57 74.32 20.73 74.32 19.65C74.32 17.37 73.03 16.23 70.45 16.23H66.67V23.04H70.45ZM88.2618 34.56C86.7018 34.56 85.2918 34.21 84.0318 33.51C82.7718 32.79 81.7818 31.79 81.0618 30.51C80.3418 29.21 79.9818 27.71 79.9818 26.01C79.9818 24.33 80.3518 22.84 81.0918 21.54C81.8318 20.24 82.8418 19.24 84.1218 18.54C85.4018 17.84 86.8318 17.49 88.4118 17.49C89.9918 17.49 91.4218 17.84 92.7018 18.54C93.9818 19.24 94.9918 20.24 95.7318 21.54C96.4718 22.84 96.8418 24.33 96.8418 26.01C96.8418 27.69 96.4618 29.18 95.7018 30.48C94.9418 31.78 93.9018 32.79 92.5818 33.51C91.2818 34.21 89.8418 34.56 88.2618 34.56ZM88.2618 31.59C89.1418 31.59 89.9618 31.38 90.7218 30.96C91.5018 30.54 92.1318 29.91 92.6118 29.07C93.0918 28.23 93.3318 27.21 93.3318 26.01C93.3318 24.81 93.1018 23.8 92.6418 22.98C92.1818 22.14 91.5718 21.51 90.8118 21.09C90.0518 20.67 89.2318 20.46 88.3518 20.46C87.4718 20.46 86.6518 20.67 85.8918 21.09C85.1518 21.51 84.5618 22.14 84.1218 22.98C83.6818 23.8 83.4618 24.81 83.4618 26.01C83.4618 27.79 83.9118 29.17 84.8118 30.15C85.7318 31.11 86.8818 31.59 88.2618 31.59ZM103.643 20.16C104.143 19.32 104.803 18.67 105.623 18.21C106.463 17.73 107.453 17.49 108.593 17.49V21.03H107.723C106.383 21.03 105.363 21.37 104.663 22.05C103.983 22.73 103.643 23.91 103.643 25.59V34.29H100.223V17.76H103.643V20.16ZM115.726 20.55V29.7C115.726 30.32 115.866 30.77 116.146 31.05C116.446 31.31 116.946 31.44 117.646 31.44H119.746V34.29H117.046C115.506 34.29 114.326 33.93 113.506 33.21C112.686 32.49 112.276 31.32 112.276 29.7V20.55H110.326V17.76H112.276V13.65H115.726V17.76H119.746V20.55H115.726ZM129.828 20.55H126.768V34.29H123.318V20.55H121.368V17.76H123.318V16.59C123.318 14.69 123.818 13.31 124.818 12.45C125.838 11.57 127.428 11.13 129.588 11.13V13.98C128.548 13.98 127.818 14.18 127.398 14.58C126.978 14.96 126.768 15.63 126.768 16.59V17.76H129.828V20.55ZM140.029 34.56C138.469 34.56 137.059 34.21 135.799 33.51C134.539 32.79 133.549 31.79 132.829 30.51C132.109 29.21 131.749 27.71 131.749 26.01C131.749 24.33 132.119 22.84 132.859 21.54C133.599 20.24 134.609 19.24 135.889 18.54C137.169 17.84 138.599 17.49 140.179 17.49C141.759 17.49 143.189 17.84 144.469 18.54C145.749 19.24 146.759 20.24 147.499 21.54C148.239 22.84 148.609 24.33 148.609 26.01C148.609 27.69 148.229 29.18 147.469 30.48C146.709 31.78 145.669 32.79 144.349 33.51C143.049 34.21 141.609 34.56 140.029 34.56ZM140.029 31.59C140.909 31.59 141.729 31.38 142.489 30.96C143.269 30.54 143.899 29.91 144.379 29.07C144.859 28.23 145.099 27.21 145.099 26.01C145.099 24.81 144.869 23.8 144.409 22.98C143.949 22.14 143.339 21.51 142.579 21.09C141.819 20.67 140.999 20.46 140.119 20.46C139.239 20.46 138.419 20.67 137.659 21.09C136.919 21.51 136.329 22.14 135.889 22.98C135.449 23.8 135.229 24.81 135.229 26.01C135.229 27.79 135.679 29.17 136.579 30.15C137.499 31.11 138.649 31.59 140.029 31.59ZM155.41 12.09V34.29H151.99V12.09H155.41ZM161.64 15.57C161.02 15.57 160.5 15.36 160.08 14.94C159.66 14.52 159.45 14 159.45 13.38C159.45 12.76 159.66 12.24 160.08 11.82C160.5 11.4 161.02 11.19 161.64 11.19C162.24 11.19 162.75 11.4 163.17 11.82C163.59 12.24 163.8 12.76 163.8 13.38C163.8 14 163.59 14.52 163.17 14.94C162.75 15.36 162.24 15.57 161.64 15.57ZM163.32 17.76V34.29H159.9V17.76H163.32ZM174.981 34.56C173.421 34.56 172.011 34.21 170.751 33.51C169.491 32.79 168.501 31.79 167.781 30.51C167.061 29.21 166.701 27.71 166.701 26.01C166.701 24.33 167.071 22.84 167.811 21.54C168.551 20.24 169.561 19.24 170.841 18.54C172.121 17.84 173.551 17.49 175.131 17.49C176.711 17.49 178.141 17.84 179.421 18.54C180.701 19.24 181.711 20.24 182.451 21.54C183.191 22.84 183.561 24.33 183.561 26.01C183.561 27.69 183.181 29.18 182.421 30.48C181.661 31.78 180.621 32.79 179.301 33.51C178.001 34.21 176.561 34.56 174.981 34.56ZM174.981 31.59C175.861 31.59 176.681 31.38 177.441 30.96C178.221 30.54 178.851 29.91 179.331 29.07C179.811 28.23 180.051 27.21 180.051 26.01C180.051 24.81 179.821 23.8 179.361 22.98C178.901 22.14 178.291 21.51 177.531 21.09C176.771 20.67 175.951 20.46 175.071 20.46C174.191 20.46 173.371 20.67 172.611 21.09C171.871 21.51 171.281 22.14 170.841 22.98C170.401 23.8 170.181 24.81 170.181 26.01C170.181 27.79 170.631 29.17 171.531 30.15C172.451 31.11 173.601 31.59 174.981 31.59Z"
              fill="white"/>
    </g>
    <g id="html5">
        <path fill-rule="evenodd" clip-rule="evenodd"
              d="M18.3125 42.0645L27.2623 6.6875L31.4375 7.87241L22.4878 43.3125L18.3125 42.0645Z" fill="#7572D5"/>
        <path fill-rule="evenodd" clip-rule="evenodd"
              d="M13.5025 12.6875L16.5625 15.9278L7.99501 25.0001L16.5625 34.0721L13.5025 37.3125L1.875 25.0001L13.5025 12.6875Z"
              fill="#7572D5"/>
        <path fill-rule="evenodd" clip-rule="evenodd"
              d="M36.4976 12.6875L33.4375 15.9278L42.0051 25.0001L33.4375 34.0721L36.4976 37.3125L48.125 25.0001L36.4976 12.6875Z"
              fill="#7572D5"/>
    </g>
    <g id="css">
        <path d="M38.0508 10.8437L12.946 10.8377L13.3515 15.7547L32.6381 15.7577L32.1519 20.8502H19.5035L19.9608 25.6742H31.7358L31.0392 32.2806L25.4969 33.7886L19.8663 32.2701L19.508 28.3134H14.5359L15.0877 35.5411L25.4969 38.7341L35.7309 35.8652L38.0493 10.8452L38.0508 10.8437ZM5.49844 2.56873H45.4984L41.86 42.9999L25.4542 47.5687L9.13993 42.9968L5.49844 2.56873Z"
              fill="#7572D5"/>
    </g>
    <g id="react">
        <g clip-path="url(#clip0_20_1854)">
            <path d="M47.8125 25C47.8125 22.0833 44.6875 19.375 39.4792 17.5L38.5417 17.1875V16.7708C39.6875 11.0416 38.8542 6.7708 36.25 5.2083C33.6458 3.6458 29.7917 5.10414 25.625 8.74997L25 9.37497L24.7917 9.16664H24.5833C20.3125 5.2083 16.1458 3.85414 13.5417 5.31247C10.9375 6.7708 10.2083 10.8333 11.25 16.1458C11.3596 16.4838 11.4295 16.8333 11.4583 17.1875L10.3125 17.6041C5.20833 19.375 2.1875 22.0833 2.1875 25C2.1875 27.9166 5.52083 30.8333 10.7292 32.7083L11.4583 32.9166C11.3296 33.2854 11.2593 33.672 11.25 34.0625C10.2083 39.2708 11.1458 43.2291 13.5417 44.6875C15.9375 46.1458 20.3125 44.7916 24.4792 41.1458L25.1042 40.625L25.9375 41.4583C28.8542 43.9583 31.7708 45.3125 34.0625 45.3125C34.8708 45.3309 35.6671 45.1137 36.3542 44.6875C38.9583 43.2291 39.8958 38.9583 38.75 33.5416V33.3333C38.705 33.1619 38.6702 32.988 38.6458 32.8125H38.9583C44.4792 30.8333 47.8125 28.0208 47.8125 25ZM44.7917 25C44.7917 26.25 42.5 28.4375 38.0208 29.8958H37.8125C37.2664 28.2202 36.6051 26.5843 35.8333 25C36.5625 23.3333 37.1875 21.6666 37.7083 20.1041L38.5417 20.3125C42.7083 21.7708 44.7917 23.75 44.7917 25ZM27.9167 39.1666L27.0833 38.5416C28.2761 37.2201 29.3891 35.8287 30.4167 34.375L35.7292 33.5416C35.8333 33.75 35.8333 33.9583 35.9375 34.0625C36.3087 35.9492 36.379 37.8829 36.1458 39.7916C35.9995 40.7045 35.5608 41.5452 34.8958 42.1875C33.8542 42.8125 31.0417 41.9791 27.9167 39.1666ZM26.5625 34.5833L25.1042 36.4583L23.4375 34.5833H26.5625ZM12.2917 20C12.8152 21.7174 13.4771 23.3895 14.2708 25C13.4765 26.646 12.8146 28.3528 12.2917 30.1041L11.6667 29.8958C9.84256 29.3201 8.1454 28.4008 6.66667 27.1875C6.28377 26.9455 5.95605 26.6257 5.7048 26.2488C5.45356 25.872 5.2844 25.4465 5.20833 25C5.20833 23.75 7.29167 21.7708 11.25 20.4166L12.2917 20ZM23.4375 15.4166L25 13.6458L26.5625 15.4166H23.4375ZM34.8958 7.81247C36.0417 8.43747 36.6667 11.5625 35.7292 16.1458C35.734 16.2022 35.7272 16.2591 35.7093 16.3128C35.6914 16.3665 35.6627 16.416 35.625 16.4583L30.4167 15.625C29.3891 14.1712 28.2761 12.7799 27.0833 11.4583L27.7083 10.9375C31.0417 8.0208 33.75 7.18747 34.8958 7.81247ZM17.5 18.8541L16.6667 20.2083L15.9375 21.5625C15.625 20.8333 15.4167 20.1041 15.1042 19.2708L17.5 18.8541ZM15.1042 30.7291C15.4167 30 15.625 29.2708 15.9375 28.4375L16.6667 29.7916L17.5 31.1458L15.1042 30.7291ZM32.5 25C31.9699 26.142 31.3788 27.2548 30.7292 28.3333C30.1042 29.4791 29.375 30.5208 28.75 31.5625H21.25C20.5208 30.4166 19.7917 29.375 19.2708 28.3333C18.6161 27.2577 18.0248 26.1447 17.5 25C18.0054 23.8458 18.5974 22.7315 19.2708 21.6666C19.8693 20.5874 20.5301 19.544 21.25 18.5416C23.7457 18.3334 26.2543 18.3334 28.75 18.5416C29.4792 19.5833 30.1042 20.625 30.7292 21.6666C31.4026 22.7315 31.9946 23.8458 32.5 25ZM33.3333 20.2083L32.5 18.8541L34.8958 19.375C34.6639 20.1208 34.3856 20.8514 34.0625 21.5625L33.3333 20.2083ZM32.5 31.1458L33.3333 29.7916L34.0625 28.3333L35 30.7291L32.5 31.1458ZM22.8125 11.3541H22.9167L19.5833 15.5208L14.375 16.3541C14.2708 16.0416 14.2708 15.8333 14.1667 15.5208C13.3333 11.25 13.9583 8.3333 15 7.81247C15.2766 7.63082 15.61 7.55672 15.9375 7.60414C17.3958 7.60414 19.8958 8.6458 22.7083 11.1458L22.8125 11.3541ZM14.1667 34.5833C14.1857 34.2617 14.256 33.9452 14.375 33.6458L19.6875 34.375C20.689 35.8481 21.8034 37.2412 23.0208 38.5416L22.8125 38.75L22.6042 38.9583C21.184 40.2738 19.5211 41.2999 17.7083 41.9791C17.3107 42.1874 16.875 42.3133 16.4275 42.3491C15.98 42.3849 15.5299 42.3299 15.1042 42.1875C13.9583 41.5625 13.3333 38.75 14.1667 34.5833Z"
                  fill="#7572D5"/>
            <path d="M25 20.4166C24.0894 20.3959 23.1932 20.647 22.4259 21.1379C21.6586 21.6287 21.0549 22.3371 20.692 23.1726C20.3291 24.008 20.2233 24.9327 20.3882 25.8285C20.5532 26.7243 20.9812 27.5507 21.6179 28.2022C22.2545 28.8536 23.0709 29.3006 23.9627 29.4861C24.8545 29.6715 25.7813 29.587 26.6249 29.2434C27.4685 28.8998 28.1905 28.3126 28.6989 27.5568C29.2073 26.801 29.4789 25.9108 29.4792 24.9999C29.4795 23.8022 29.0109 22.6519 28.1738 21.7953C27.3366 20.9387 26.1974 20.4438 25 20.4166Z"
                  fill="#7572D5"/>
        </g>
        <defs>
            <clipPath id="clip0_20_1854">
                <rect width="50" height="50" fill="white"/>
            </clipPath>
        </defs>
    </g>
    <g id="typescript">
        <path d="M5 25V45H45V5H5V25ZM37.235 23.4067C38.2517 23.66 39.025 24.1117 39.7367 24.8483C40.105 25.2417 40.6517 25.9583 40.695 26.1317C40.7083 26.1817 38.9683 27.3483 37.915 28.0033C37.8767 28.0283 37.7233 27.8633 37.5533 27.61C37.0367 26.86 36.4983 26.5367 35.6733 26.48C34.46 26.3967 33.68 27.0317 33.6867 28.0917C33.6756 28.3523 33.7343 28.6112 33.8567 28.8417C34.1233 29.3933 34.62 29.725 36.1733 30.3967C39.0383 31.63 40.2633 32.4417 41.025 33.5967C41.875 34.885 42.0667 36.9433 41.4883 38.4733C40.855 40.1367 39.28 41.2667 37.0633 41.64C36.3783 41.7617 34.7533 41.7433 34.0167 41.61C32.41 41.3233 30.8867 40.53 29.9467 39.4883C29.5783 39.0833 28.86 38.0217 28.905 37.9467C28.9233 37.92 29.0883 37.8183 29.2717 37.7117C29.4517 37.61 30.1233 37.2217 30.7583 36.8533L31.9083 36.1867L32.15 36.5433C32.4867 37.0567 33.2217 37.7617 33.6667 37.9967C34.9433 38.67 36.695 38.575 37.5583 37.8C37.7319 37.6538 37.8694 37.4693 37.9599 37.2612C38.0504 37.053 38.0915 36.8267 38.08 36.6C38.08 36.1367 38.0217 35.9333 37.78 35.5833C37.47 35.14 36.835 34.7667 35.0317 33.9833C32.9683 33.095 32.08 32.5433 31.2667 31.6667C30.759 31.0881 30.3841 30.4055 30.1683 29.6667C30.0167 29.1017 29.9783 27.685 30.0983 27.115C30.5233 25.12 32.0283 23.7317 34.2 23.3183C34.905 23.185 36.5433 23.235 37.235 23.4067ZM27.845 25.0767L27.8583 26.715H22.65V41.5083H18.9667V26.715H13.7633V25.1083C13.7633 24.2183 13.7817 23.475 13.8067 23.4583C13.8267 23.4317 16.995 23.4183 20.835 23.425L27.8267 23.445L27.845 25.0767Z"
              fill="#7572D5"/>
    </g>
    <g id="styledcomponents">
        <path d="M37.2591 6.25L36.9888 7.64963C36.5708 10.3021 36.7221 11.061 37.8682 12.0454L38.9747 12.9546L37.8286 18.0305C37.1438 21.0588 36.3041 23.5968 35.7707 24.4308C35.313 25.1503 34.7796 26.2099 34.6642 26.7791C34.4732 27.4592 33.8245 28.1429 32.8334 28.7478C31.9576 29.2418 30.2385 30.5663 29.0203 31.6294C28.0472 32.4993 27.3769 33.0326 27.0129 33.2617L25.8235 34.196C25.4415 34.8046 25.2253 35.295 25.1424 35.6672C25.0595 36.0503 25.1063 36.3044 25.2289 36.4905C25.3478 36.6695 25.5532 36.7948 25.8343 36.8736C26.1671 36.951 26.5097 36.9788 26.8507 36.9559C27.6222 36.9035 28.3858 36.7691 29.1284 36.555C29.3807 36.487 29.5789 36.4225 29.7519 36.3653C30.0186 36.0395 30.6349 35.4238 31.7269 34.3535C34.6246 31.5149 35.731 29.9613 34.5885 30.3802C34.1669 30.5305 34.3579 30.1511 35.0823 29.3922C36.6104 27.9138 37.4862 25.6801 39.317 18.6748C40.7659 13.1443 40.7659 13.0656 41.8327 13.0656C42.3336 13.0656 43.75 13.1515 43.75 13.1515V6.25H40.4992H37.2591ZM24.4216 18.0806C23.3692 18.0735 21.1058 19.6664 14.3303 25.1611C14.0383 25.8519 14.0131 26.328 14.1464 26.6359C14.2329 26.8471 14.3915 26.9938 14.6114 27.1012C14.8276 27.2086 15.1087 27.2731 15.4187 27.2981C16.035 27.3518 16.763 27.2552 17.3504 27.1406L17.7469 27.0511C17.8826 26.8704 18.0608 26.7254 18.2659 26.6287C18.6839 26.3996 20.4391 24.8103 22.1943 23.1064C25.2829 19.9993 26.0073 18.5961 24.7495 18.1415C24.6463 18.1007 24.5326 18.08 24.4216 18.0806ZM32.336 20.2391C31.4098 20.2642 29.7411 21.3309 26.8831 23.5968C25.4487 24.753 24.5405 25.3759 24.0539 25.5047L22.1654 26.9867C21.4554 28.2753 21.3509 29.0736 21.5383 29.5139C21.5852 29.6225 21.6533 29.7208 21.7387 29.8031C21.8241 29.8855 21.925 29.9502 22.0357 29.9936C22.311 30.1015 22.6046 30.1562 22.9006 30.1546C23.608 30.1471 24.3112 30.0448 24.991 29.8504C25.3453 29.7559 25.6952 29.6461 26.0398 29.521L26.1443 29.4781L26.3353 29.3779C26.6957 28.9161 27.5246 28.0462 28.5626 27.044C31.8423 23.9011 33.5181 21.6674 33.1758 20.8333C33.0208 20.4288 32.7541 20.2248 32.336 20.2391ZM23.5998 24.1051C23.3331 24.1337 22.7349 24.5919 21.6573 25.5298C20.1003 26.8972 18.4028 27.6847 17.8154 27.3339C17.6788 27.3645 17.5419 27.3932 17.4045 27.4198C16.8062 27.5379 16.0602 27.6346 15.3934 27.5809C15.0793 27.562 14.7714 27.4855 14.4852 27.3554C14.2153 27.2328 13.9999 27.0164 13.8797 26.7468C13.7464 26.4247 13.7464 26.0238 13.8978 25.5119L11.5551 27.4234L6.2536 31.7798V38.8424L23.6251 25.2506C23.6217 25.1018 23.6411 24.9533 23.6827 24.8103C23.8161 24.3306 23.8089 24.0872 23.5998 24.1087V24.1051ZM31.0746 26.3925C30.8115 26.3925 30.3718 26.7612 29.669 27.5021C28.714 28.5152 27.2111 29.496 26.4146 29.6964L26.292 29.7609C26.1613 29.8145 26.0291 29.8646 25.8956 29.9112C25.6794 29.9828 25.3982 30.0687 25.0739 30.1546C24.4252 30.33 23.6179 30.4911 22.897 30.4732C22.5572 30.4728 22.2207 30.4072 21.9059 30.2799C21.6093 30.1585 21.3716 29.9275 21.2428 29.6356C21.0338 29.138 21.1167 28.44 21.5744 27.4485L6.25 39.4366V43.75H12.9823L27.2615 32.6103C27.6327 32.2022 28.1914 31.6438 28.9446 30.9457C30.9629 29.0879 31.4206 28.4472 31.4206 27.4986C31.4206 26.7612 31.3377 26.3889 31.0746 26.3889V26.3925ZM34.4732 33.3727L33.2514 34.5826C32.5667 35.2269 31.3449 36.0216 30.5088 36.3617L30.343 36.4333L30.3322 36.4512L30.2961 36.487C30.2637 36.512 30.2493 36.5156 30.2241 36.5263C29.8903 36.6518 29.5512 36.7629 29.2077 36.8592C28.4441 37.08 27.6586 37.218 26.8651 37.2709C26.4899 37.2948 26.1132 37.2622 25.7478 37.1743C25.4307 37.1049 25.1508 36.9213 24.9622 36.6588C24.7892 36.3939 24.7387 36.0395 24.836 35.6028C24.9134 35.2919 25.0284 34.9914 25.1784 34.7079L13.6563 43.75H28.9807L30.8115 41.6667C33.3271 38.7529 34.4732 36.6695 34.4732 34.8869V33.3727Z"
              fill="#7572D5"/>
    </g>
    <g id="figma">
        <path d="M17.7083 4.16663C14.2565 4.16663 11.4583 6.96486 11.4583 10.4166C11.4583 13.8684 14.2565 16.6666 17.7083 16.6666H32.2916C35.7435 16.6666 38.5416 13.8684 38.5416 10.4166C38.5416 6.96486 35.7435 4.16663 32.2916 4.16663H17.7083Z"
              fill="#7572D5"/>
        <path d="M32.2917 18.75C28.8398 18.75 26.0417 21.5481 26.0417 25C26.0417 28.4519 28.8398 31.25 32.2917 31.25C35.7436 31.25 38.5417 28.4519 38.5417 25C38.5417 21.5481 35.7436 18.75 32.2917 18.75Z"
              fill="#7572D5"/>
        <path d="M11.4583 25C11.4583 21.5481 14.2565 18.75 17.7083 18.75H23.9583V31.25H17.7083C14.2565 31.25 11.4583 28.4519 11.4583 25Z"
              fill="#7572D5"/>
        <path d="M17.7083 33.3334C14.2565 33.3334 11.4583 36.1315 11.4583 39.5834C11.4583 43.0352 14.2565 45.8334 17.7083 45.8334C21.1602 45.8334 23.9583 43.0352 23.9583 39.5834V33.3334H17.7083Z"
              fill="#7572D5"/>
    </g>
</svg>
